<svg xmlns="http://www.w3.org/2000/svg" width="1600" height="1000" viewBox="0 0 1600 1000" fill="none">
  <rect width="1600" height="1000" rx="48" fill="#06131F"/>
  <rect x="90" y="90" width="1420" height="820" rx="40" fill="url(#a)"/>
  <circle cx="1248" cy="190" r="220" fill="#14B8A6" fill-opacity=".2"/>
  <rect x="154" y="162" width="526" height="676" rx="34" fill="#0F172A" fill-opacity=".74"/>
  <path d="M232 692C292 552 392 410 510 304C584 236 650 194 650 194V806H232V692Z" fill="#2DD4BF"/>
  <rect x="742" y="192" width="548" height="34" rx="17" fill="#ECFEFF"/>
  <rect x="742" y="252" width="402" height="20" rx="10" fill="#99F6E4"/>
  <rect x="742" y="352" width="548" height="114" rx="26" fill="#ffffff" fill-opacity=".08"/>
  <rect x="742" y="500" width="548" height="114" rx="26" fill="#ffffff" fill-opacity=".08"/>
  <rect x="742" y="648" width="548" height="114" rx="26" fill="#ffffff" fill-opacity=".08"/>
  <text x="782" y="430" fill="#fff" font-family="Plus Jakarta Sans, Arial, sans-serif" font-size="62" font-weight="700">UI Systems</text>
  <text x="782" y="510" fill="#99F6E4" font-family="Plus Jakarta Sans, Arial, sans-serif" font-size="30">Modern layouts, spacing, and polish</text>
  <defs>
    <linearGradient id="a" x1="90" y1="90" x2="1474" y2="910" gradientUnits="userSpaceOnUse">
      <stop stop-color="#0F172A"/>
      <stop offset="1" stop-color="#0F766E"/>
    </linearGradient>
  </defs>
</svg>
